<svg xmlns="http://www.w3.org/2000/svg" height="48" width="48"><defs><filter height="1.372" y="-.186" width="1.349" x="-.174" id="b" color-interpolation-filters="sRGB"><feGaussianBlur stdDeviation="1.581"/></filter><filter height="1.378" y="-.189" width="1.344" x="-.172" id="a" color-interpolation-filters="sRGB"><feGaussianBlur stdDeviation="1.801"/></filter></defs><path d="M27.189 20.655a4.118 3.865 0 0 1-.019.363" fill="red"/><path d="M3.5 27.488A17 17 0 0 1 20.511 10.5 17 17 0 0 1 37.5 27.51 17 17 0 0 1 20.49 44.5 17 17 0 0 1 3.5 27.491" fill="none" stroke="#adb591" stroke-width="5"/><path d="M12 27.426A8.5 8.5 0 0 1 20.574 19 8.5 8.5 0 0 1 29 27.573 8.5 8.5 0 0 1 20.427 36 8.5 8.5 0 0 1 12 27.427" fill="none" stroke="#91967b" stroke-width="4"/><path transform="matrix(.21508 0 0 .21158 -.202 -.887)" d="M144.44 91.417l17.314-18.4 6.837 7.886-21.15 14.746z" opacity=".245" fill="#393d29" filter="url(#a)"/><path transform="matrix(.17024 0 0 .18648 .959 7.164)" d="M144.007 90.724l16.605-15.48 5.166 6.278-18.336 14.127z" opacity=".355" fill="#393d29" filter="url(#b)"/><path d="M22.48 25.583a2.964 2.975 0 0 1-.024 4.207 2.964 2.975 0 0 1-4.191-.022 2.964 2.975 0 0 1 .02-4.207 2.964 2.975 0 0 1 4.192.02l-2.105 2.094z" fill="#9ebc0c"/><path d="M21.605 26.421L36.95 11.129" fill="none" stroke="#a2bc0c" stroke-width="2.037" stroke-linecap="square"/><path d="M41.272 1l-7.445 7.572.79 4.963 4.937.832L47 6.794l-5.105-.664z" fill="#9bbc0c"/></svg>